<svg width="333" height="86" viewBox="0 0 333 86" fill="none" xmlns="http://www.w3.org/2000/svg">
<g filter="url(#filter0_d_1_2920)">
<path d="M4.75 10C4.75 5.99594 7.99594 2.75 12 2.75H321C325.004 2.75 328.25 5.99594 328.25 10V72C328.25 76.0041 325.004 79.25 321 79.25H12C7.99594 79.25 4.75 76.0041 4.75 72V10Z" stroke="#5E5ADB" stroke-width="1.5" shape-rendering="crispEdges"/>
<path d="M25.024 24.64C28.576 24.64 30.576 26.688 30.576 30.336C30.576 33.968 28.624 36 25.12 36H21.392V24.64H25.024ZM23.088 34.432H25.024C27.568 34.432 28.816 33.088 28.816 30.336C28.816 27.552 27.568 26.208 25.024 26.208H23.088V34.432ZM32.1765 30.048C32.5125 28.352 33.8565 27.328 35.7765 27.328C38.0805 27.328 39.3285 28.608 39.3285 30.912V34.112C39.3285 34.512 39.5045 34.656 39.8405 34.656H40.1925V36H39.6325C38.8645 36.016 37.8565 35.856 37.7925 34.704C37.4245 35.504 36.4805 36.192 35.0885 36.192C33.3925 36.192 32.0325 35.296 32.0325 33.776C32.0325 32.064 33.2965 31.584 35.2325 31.216L37.6645 30.736C37.6485 29.376 37.0245 28.72 35.7765 28.72C34.7845 28.72 34.1285 29.216 33.8885 30.16L32.1765 30.048ZM33.7605 33.744C33.7605 34.368 34.2885 34.88 35.4085 34.88C36.7045 34.88 37.6965 33.968 37.6965 32.112V32.032L35.8725 32.352C34.6885 32.56 33.7605 32.656 33.7605 33.744ZM42.1131 25.6H43.7771V27.52H46.0331V28.896H43.7771V33.584C43.7771 34.272 44.1131 34.624 44.7691 34.624H46.0171V36H44.6251C42.9931 36 42.1131 35.152 42.1131 33.584V28.896H40.8331V27.52H42.1131V25.6ZM47.4734 30.048C47.8094 28.352 49.1534 27.328 51.0734 27.328C53.3774 27.328 54.6254 28.608 54.6254 30.912V34.112C54.6254 34.512 54.8014 34.656 55.1374 34.656H55.4894V36H54.9294C54.1614 36.016 53.1534 35.856 53.0894 34.704C52.7214 35.504 51.7774 36.192 50.3854 36.192C48.6894 36.192 47.3294 35.296 47.3294 33.776C47.3294 32.064 48.5934 31.584 50.5294 31.216L52.9614 30.736C52.9454 29.376 52.3214 28.72 51.0734 28.72C50.0814 28.72 49.4254 29.216 49.1854 30.16L47.4734 30.048ZM49.0574 33.744C49.0574 34.368 49.5854 34.88 50.7054 34.88C52.0014 34.88 52.9934 33.968 52.9934 32.112V32.032L51.1694 32.352C49.9854 32.56 49.0574 32.656 49.0574 33.744Z" fill="#585858"/>
<path d="M24.608 48.912C26.5152 48.912 27.7056 49.9616 27.7056 51.6512C27.7056 52.7392 26.976 53.5328 26.144 53.7632C27.0528 53.9168 27.4496 54.3776 27.5392 55.3248L27.7824 58H26.6944L26.4768 55.4272C26.4 54.608 25.8368 54.3264 24.5056 54.3264H22.2528V58H21.1776V48.912H24.608ZM22.2528 53.2768H24.608C25.8752 53.2768 26.5792 52.688 26.5792 51.6256C26.5792 50.5632 25.8752 49.9616 24.608 49.9616H22.2528V53.2768ZM29.2918 53.2128C29.5606 51.8944 30.6102 51.0624 32.0566 51.0624C33.8102 51.0624 34.783 52.0864 34.783 53.904V56.6304C34.783 56.9376 34.911 57.0656 35.2054 57.0656H35.4742V58H35.0262C34.335 58 33.7334 57.7696 33.7462 56.9376C33.4518 57.5776 32.6838 58.1536 31.6086 58.1536C30.2646 58.1536 29.1766 57.4368 29.1766 56.2336C29.1766 54.8384 30.239 54.48 31.7238 54.1856L33.7334 53.8016C33.7206 52.624 33.1702 52.0608 32.0566 52.0608C31.1862 52.0608 30.6102 52.5088 30.4054 53.3024L29.2918 53.2128ZM30.2774 56.2336C30.2774 56.784 30.751 57.232 31.7494 57.2192C32.8758 57.2192 33.759 56.4256 33.759 54.8512V54.736L32.1334 55.0176C31.1222 55.1968 30.2774 55.2736 30.2774 56.2336ZM36.913 51.216H37.873L37.9114 52.3808C38.257 51.472 39.0634 51.0624 39.9978 51.0624C41.5466 51.0624 42.289 52.2016 42.289 53.6352V58H41.2394V53.9424C41.2394 52.688 40.817 51.9968 39.7802 51.9968C38.6794 51.9968 37.9626 52.688 37.9626 53.9424V58H36.913V51.216ZM49.7301 48.912V58H48.7829L48.7445 57.0016C48.3605 57.7184 47.6309 58.1536 46.5813 58.1536C44.6229 58.1536 43.7141 56.4896 43.7141 54.608C43.7141 52.7264 44.6229 51.0624 46.5813 51.0624C47.5797 51.0624 48.2965 51.4464 48.6805 52.1376V48.912H49.7301ZM44.8149 54.608C44.8149 55.9264 45.3781 57.1552 46.7989 57.1552C48.1941 57.1552 48.7701 55.9008 48.7701 54.608C48.7701 53.264 48.1941 52.0224 46.7989 52.0224C45.3781 52.0224 44.8149 53.2512 44.8149 54.608ZM54.5117 58.1536C52.6301 58.1536 51.4141 56.7584 51.4141 54.608C51.4141 52.4576 52.6301 51.0624 54.5117 51.0624C56.3933 51.0624 57.6093 52.4576 57.6093 54.608C57.6093 56.7584 56.3933 58.1536 54.5117 58.1536ZM52.5149 54.608C52.5149 56.1952 53.2445 57.1552 54.5117 57.1552C55.7661 57.1552 56.5085 56.1952 56.5085 54.608C56.5085 53.0208 55.7661 52.0608 54.5117 52.0608C53.2445 52.0608 52.5149 53.0208 52.5149 54.608ZM59.238 51.216H60.198L60.2364 52.368C60.5436 51.536 61.2476 51.0624 62.1948 51.0624C63.1676 51.0624 63.8716 51.5872 64.166 52.496C64.4604 51.5744 65.1772 51.0624 66.2396 51.0624C67.5964 51.0624 68.39 52.0096 68.39 53.6352V58H67.3404V53.9424C67.3404 52.7008 66.854 51.9968 66.022 51.9968C64.9596 51.9968 64.3452 52.7136 64.3452 53.9552V58H63.2956V53.9424C63.2956 52.7264 62.7964 51.9968 61.9772 51.9968C60.9276 51.9968 60.2876 52.7392 60.2876 53.9424V58H59.238V51.216ZM76.5808 48.912C79.3712 48.912 80.9456 50.5504 80.9456 53.4688C80.9456 56.3744 79.4096 58 76.6576 58H73.7776V48.912H76.5808ZM74.8528 56.9504H76.5808C78.744 56.9504 79.8192 55.7856 79.8192 53.4688C79.8192 51.1264 78.744 49.9616 76.5808 49.9616H74.8528V56.9504ZM82.1766 54.608C82.1766 52.4576 83.3926 51.0624 85.2742 51.0624C86.7846 51.0624 88.103 52.0736 88.2182 54.4672L88.231 54.9408H83.2902C83.3926 56.336 84.0966 57.1552 85.2742 57.1552C86.0166 57.1552 86.6822 56.72 86.9894 56.0032L88.1158 56.08C87.719 57.36 86.5798 58.1536 85.2742 58.1536C83.3926 58.1536 82.1766 56.7584 82.1766 54.608ZM83.3158 54.0064H87.079C86.887 52.5728 86.119 52.0608 85.2742 52.0608C84.1862 52.0608 83.4822 52.7776 83.3158 54.0064ZM93.7783 53.3024C93.6247 52.5216 92.8567 52.0608 92.0887 52.0608C91.3207 52.0608 90.7063 52.4576 90.7063 53.1104C90.7191 53.776 91.5767 54.0576 92.3447 54.224C93.8935 54.5184 95.0071 54.9536 95.0071 56.272C95.0071 57.5776 93.6631 58.1536 92.3703 58.1536C90.7703 58.1536 89.5415 57.2704 89.4391 55.8752L90.5399 55.7984C90.6679 56.6176 91.3335 57.1552 92.3703 57.1552C93.0615 57.1552 93.9063 56.9248 93.9063 56.2208C93.9063 55.4016 92.9335 55.312 92.1527 55.12C90.8983 54.8256 89.6183 54.4672 89.6183 53.1744C89.6055 51.8816 90.6551 51.0624 92.2039 51.0624C93.5607 51.0624 94.6615 51.92 94.8791 53.2256L93.7783 53.3024ZM101.027 53.4816C100.873 52.5856 100.144 52.0608 99.3117 52.0608C98.0445 52.0608 97.3149 53.0208 97.3149 54.608C97.3149 56.1952 98.0445 57.1552 99.3117 57.1552C100.182 57.1552 100.925 56.5792 101.078 55.6064L102.192 55.6704C101.974 57.2064 100.758 58.1536 99.3117 58.1536C97.4301 58.1536 96.2141 56.7584 96.2141 54.608C96.2141 52.4576 97.4301 51.0624 99.3117 51.0624C100.707 51.0624 101.949 51.9584 102.128 53.4048L101.027 53.4816ZM103.688 51.216H104.61L104.648 52.4704C104.878 51.6128 105.39 51.216 106.274 51.216H106.926V52.1376H106.274C105.237 52.1376 104.738 52.7776 104.738 53.9552V58H103.688V51.216ZM108.238 51.216H109.288V58H108.238V51.216ZM108.212 50.1536V48.9376H109.313V50.1536H108.212ZM111.288 59.92V51.216H112.235L112.274 52.2528C112.645 51.4848 113.387 51.0624 114.373 51.0624C116.395 51.0624 117.304 52.7264 117.304 54.608C117.304 56.4896 116.395 58.1536 114.373 58.1536C113.426 58.1536 112.709 57.7568 112.338 57.0272V59.92H111.288ZM112.222 54.608C112.222 55.9008 112.811 57.1424 114.194 57.1424C115.602 57.1424 116.178 55.9264 116.178 54.608C116.178 53.2896 115.602 52.0608 114.194 52.0608C112.811 52.0608 112.222 53.3152 112.222 54.608ZM119.279 49.68H120.329V51.216H122.133V52.1504H120.329V56.208C120.329 56.784 120.61 57.0656 121.148 57.0656H122.121V58H121.148C119.945 58 119.279 57.36 119.279 56.208V52.1504H118.281V51.216H119.279V49.68ZM123.713 51.216H124.763V58H123.713V51.216ZM123.687 50.1536V48.9376H124.788V50.1536H123.687ZM129.549 58.1536C127.668 58.1536 126.452 56.7584 126.452 54.608C126.452 52.4576 127.668 51.0624 129.549 51.0624C131.431 51.0624 132.647 52.4576 132.647 54.608C132.647 56.7584 131.431 58.1536 129.549 58.1536ZM127.552 54.608C127.552 56.1952 128.282 57.1552 129.549 57.1552C130.804 57.1552 131.546 56.1952 131.546 54.608C131.546 53.0208 130.804 52.0608 129.549 52.0608C128.282 52.0608 127.552 53.0208 127.552 54.608ZM134.276 51.216H135.236L135.274 52.3808C135.62 51.472 136.426 51.0624 137.36 51.0624C138.909 51.0624 139.652 52.2016 139.652 53.6352V58H138.602V53.9424C138.602 52.688 138.18 51.9968 137.143 51.9968C136.042 51.9968 135.325 52.688 135.325 53.9424V58H134.276V51.216Z" fill="#888891"/>
</g>
<defs>
<filter id="filter0_d_1_2920" x="0" y="0" width="333" height="86" filterUnits="userSpaceOnUse" color-interpolation-filters="sRGB">
<feFlood flood-opacity="0" result="BackgroundImageFix"/>
<feColorMatrix in="SourceAlpha" type="matrix" values="0 0 0 0 0 0 0 0 0 0 0 0 0 0 0 0 0 0 127 0" result="hardAlpha"/>
<feOffset dy="2"/>
<feGaussianBlur stdDeviation="2"/>
<feComposite in2="hardAlpha" operator="out"/>
<feColorMatrix type="matrix" values="0 0 0 0 0 0 0 0 0 0 0 0 0 0 0 0 0 0 0.25 0"/>
<feBlend mode="normal" in2="BackgroundImageFix" result="effect1_dropShadow_1_2920"/>
<feBlend mode="normal" in="SourceGraphic" in2="effect1_dropShadow_1_2920" result="shape"/>
</filter>
</defs>
</svg>
