<svg width="325" height="78" viewBox="0 0 325 78" fill="none" xmlns="http://www.w3.org/2000/svg">
<path d="M0.5 8C0.5 3.85786 3.85786 0.5 8 0.5H317C321.142 0.5 324.5 3.85786 324.5 8V70C324.5 74.1421 321.142 77.5 317 77.5H8.00001C3.85787 77.5 0.5 74.1421 0.5 70V8Z" stroke="#E4E4E7"/>
<path d="M18.656 30.24C18.928 31.664 19.936 32.624 21.616 32.624C22.96 32.624 23.856 32.112 23.856 31.072C23.856 30 22.944 29.376 20.816 28.848C18.8 28.352 17.136 27.408 17.136 25.568C17.136 23.616 18.736 22.384 21.024 22.384C23.488 22.384 25.136 23.92 25.392 26.064L23.648 26.16C23.456 24.816 22.448 23.936 20.992 23.936C19.776 23.936 18.88 24.576 18.896 25.584C18.912 26.848 20.448 27.2 21.776 27.568C23.952 28.128 25.616 29.184 25.616 30.944C25.616 33.072 23.68 34.192 21.52 34.192C18.944 34.192 17.088 32.672 16.912 30.336L18.656 30.24ZM34.8036 34H33.2356L33.2196 32.608C32.7716 33.712 31.8116 34.192 30.7076 34.192C28.8356 34.192 27.8756 32.816 27.8756 30.976V25.52H29.5396V30.464C29.5396 31.968 29.9876 32.784 31.1396 32.784C32.3396 32.784 33.1396 31.968 33.1396 30.464V25.52H34.8036V34ZM37.3581 25.52H38.8621L38.9101 26.912C39.3261 25.904 40.1901 25.328 41.3261 25.328C42.5421 25.328 43.4221 25.968 43.7901 27.088C44.1741 25.936 45.0541 25.328 46.3341 25.328C48.0621 25.328 49.0861 26.48 49.0861 28.544V34H47.4221V29.04C47.4221 27.552 46.8781 26.736 45.9181 26.736C44.7021 26.736 44.0141 27.568 44.0141 29.04V34H42.4301V29.04C42.4301 27.584 41.8861 26.736 40.9261 26.736C39.7261 26.736 39.0221 27.584 39.0221 29.04V34H37.3581V25.52ZM51.2488 25.52H52.7528L52.8008 26.912C53.2168 25.904 54.0807 25.328 55.2168 25.328C56.4328 25.328 57.3128 25.968 57.6808 27.088C58.0648 25.936 58.9448 25.328 60.2248 25.328C61.9528 25.328 62.9768 26.48 62.9768 28.544V34H61.3128V29.04C61.3128 27.552 60.7688 26.736 59.8088 26.736C58.5928 26.736 57.9048 27.568 57.9048 29.04V34H56.3208V29.04C56.3208 27.584 55.7768 26.736 54.8168 26.736C53.6168 26.736 52.9128 27.584 52.9128 29.04V34H51.2488V25.52ZM65.0203 28.048C65.3563 26.352 66.7003 25.328 68.6203 25.328C70.9243 25.328 72.1723 26.608 72.1723 28.912V32.112C72.1723 32.512 72.3483 32.656 72.6843 32.656H73.0363V34H72.4763C71.7083 34.016 70.7003 33.856 70.6363 32.704C70.2683 33.504 69.3243 34.192 67.9323 34.192C66.2363 34.192 64.8763 33.296 64.8763 31.776C64.8763 30.064 66.1403 29.584 68.0763 29.216L70.5083 28.736C70.4923 27.376 69.8683 26.72 68.6203 26.72C67.6283 26.72 66.9723 27.216 66.7323 28.16L65.0203 28.048ZM66.6043 31.744C66.6043 32.368 67.1323 32.88 68.2523 32.88C69.5483 32.88 70.5403 31.968 70.5403 30.112V30.032L68.7163 30.352C67.5323 30.56 66.6043 30.656 66.6043 31.744ZM74.7331 25.52H76.2531L76.3011 27.12C76.5731 26.032 77.2131 25.52 78.3171 25.52H79.1331V26.896H78.3011C76.9891 26.896 76.3971 27.616 76.3971 29.04V34H74.7331V25.52ZM80.2114 25.52H81.9074L84.3234 32.24L86.6594 25.52H88.3394L84.9474 34.992C84.5954 35.968 83.9554 36.4 82.9154 36.4H81.7634V35.04H82.6914C83.1234 35.04 83.3794 34.88 83.5234 34.48L83.8114 33.76H83.2834L80.2114 25.52Z" fill="#585858"/>
<path d="M20.608 46.912C22.5152 46.912 23.7056 47.9616 23.7056 49.6512C23.7056 50.7392 22.976 51.5328 22.144 51.7632C23.0528 51.9168 23.4496 52.3776 23.5392 53.3248L23.7824 56H22.6944L22.4768 53.4272C22.4 52.608 21.8368 52.3264 20.5056 52.3264H18.2528V56H17.1776V46.912H20.608ZM18.2528 51.2768H20.608C21.8752 51.2768 22.5792 50.688 22.5792 49.6256C22.5792 48.5632 21.8752 47.9616 20.608 47.9616H18.2528V51.2768ZM25.2918 51.2128C25.5606 49.8944 26.6102 49.0624 28.0566 49.0624C29.8102 49.0624 30.783 50.0864 30.783 51.904V54.6304C30.783 54.9376 30.911 55.0656 31.2054 55.0656H31.4742V56H31.0262C30.335 56 29.7334 55.7696 29.7462 54.9376C29.4518 55.5776 28.6838 56.1536 27.6086 56.1536C26.2646 56.1536 25.1766 55.4368 25.1766 54.2336C25.1766 52.8384 26.239 52.48 27.7238 52.1856L29.7334 51.8016C29.7206 50.624 29.1702 50.0608 28.0566 50.0608C27.1862 50.0608 26.6102 50.5088 26.4054 51.3024L25.2918 51.2128ZM26.2774 54.2336C26.2774 54.784 26.751 55.232 27.7494 55.2192C28.8758 55.2192 29.759 54.4256 29.759 52.8512V52.736L28.1334 53.0176C27.1222 53.1968 26.2774 53.2736 26.2774 54.2336ZM32.913 49.216H33.873L33.9114 50.3808C34.257 49.472 35.0634 49.0624 35.9978 49.0624C37.5466 49.0624 38.289 50.2016 38.289 51.6352V56H37.2394V51.9424C37.2394 50.688 36.817 49.9968 35.7802 49.9968C34.6794 49.9968 33.9626 50.688 33.9626 51.9424V56H32.913V49.216ZM45.7301 46.912V56H44.7829L44.7445 55.0016C44.3605 55.7184 43.6309 56.1536 42.5813 56.1536C40.6229 56.1536 39.7141 54.4896 39.7141 52.608C39.7141 50.7264 40.6229 49.0624 42.5813 49.0624C43.5797 49.0624 44.2965 49.4464 44.6805 50.1376V46.912H45.7301ZM40.8149 52.608C40.8149 53.9264 41.3781 55.1552 42.7989 55.1552C44.1941 55.1552 44.7701 53.9008 44.7701 52.608C44.7701 51.264 44.1941 50.0224 42.7989 50.0224C41.3781 50.0224 40.8149 51.2512 40.8149 52.608ZM50.5117 56.1536C48.6301 56.1536 47.4141 54.7584 47.4141 52.608C47.4141 50.4576 48.6301 49.0624 50.5117 49.0624C52.3933 49.0624 53.6093 50.4576 53.6093 52.608C53.6093 54.7584 52.3933 56.1536 50.5117 56.1536ZM48.5149 52.608C48.5149 54.1952 49.2445 55.1552 50.5117 55.1552C51.7661 55.1552 52.5085 54.1952 52.5085 52.608C52.5085 51.0208 51.7661 50.0608 50.5117 50.0608C49.2445 50.0608 48.5149 51.0208 48.5149 52.608ZM55.238 49.216H56.198L56.2364 50.368C56.5436 49.536 57.2476 49.0624 58.1948 49.0624C59.1676 49.0624 59.8716 49.5872 60.166 50.496C60.4604 49.5744 61.1772 49.0624 62.2396 49.0624C63.5964 49.0624 64.39 50.0096 64.39 51.6352V56H63.3404V51.9424C63.3404 50.7008 62.854 49.9968 62.022 49.9968C60.9596 49.9968 60.3452 50.7136 60.3452 51.9552V56H59.2956V51.9424C59.2956 50.7264 58.7964 49.9968 57.9772 49.9968C56.9276 49.9968 56.2876 50.7392 56.2876 51.9424V56H55.238V49.216ZM72.5808 46.912C75.3712 46.912 76.9456 48.5504 76.9456 51.4688C76.9456 54.3744 75.4096 56 72.6576 56H69.7776V46.912H72.5808ZM70.8528 54.9504H72.5808C74.744 54.9504 75.8192 53.7856 75.8192 51.4688C75.8192 49.1264 74.744 47.9616 72.5808 47.9616H70.8528V54.9504ZM78.1766 52.608C78.1766 50.4576 79.3926 49.0624 81.2742 49.0624C82.7846 49.0624 84.103 50.0736 84.2182 52.4672L84.231 52.9408H79.2902C79.3926 54.336 80.0966 55.1552 81.2742 55.1552C82.0166 55.1552 82.6822 54.72 82.9894 54.0032L84.1158 54.08C83.719 55.36 82.5798 56.1536 81.2742 56.1536C79.3926 56.1536 78.1766 54.7584 78.1766 52.608ZM79.3158 52.0064H83.079C82.887 50.5728 82.119 50.0608 81.2742 50.0608C80.1862 50.0608 79.4822 50.7776 79.3158 52.0064ZM89.7783 51.3024C89.6247 50.5216 88.8567 50.0608 88.0887 50.0608C87.3207 50.0608 86.7063 50.4576 86.7063 51.1104C86.7191 51.776 87.5767 52.0576 88.3447 52.224C89.8935 52.5184 91.0071 52.9536 91.0071 54.272C91.0071 55.5776 89.6631 56.1536 88.3703 56.1536C86.7703 56.1536 85.5415 55.2704 85.4391 53.8752L86.5399 53.7984C86.6679 54.6176 87.3335 55.1552 88.3703 55.1552C89.0615 55.1552 89.9063 54.9248 89.9063 54.2208C89.9063 53.4016 88.9335 53.312 88.1527 53.12C86.8983 52.8256 85.6183 52.4672 85.6183 51.1744C85.6055 49.8816 86.6551 49.0624 88.2039 49.0624C89.5607 49.0624 90.6615 49.92 90.8791 51.2256L89.7783 51.3024ZM97.0269 51.4816C96.8733 50.5856 96.1437 50.0608 95.3117 50.0608C94.0445 50.0608 93.3149 51.0208 93.3149 52.608C93.3149 54.1952 94.0445 55.1552 95.3117 55.1552C96.1821 55.1552 96.9245 54.5792 97.0781 53.6064L98.1917 53.6704C97.9741 55.2064 96.7581 56.1536 95.3117 56.1536C93.4301 56.1536 92.2141 54.7584 92.2141 52.608C92.2141 50.4576 93.4301 49.0624 95.3117 49.0624C96.7069 49.0624 97.9485 49.9584 98.1277 51.4048L97.0269 51.4816ZM99.688 49.216H100.61L100.648 50.4704C100.878 49.6128 101.39 49.216 102.274 49.216H102.926V50.1376H102.274C101.237 50.1376 100.738 50.7776 100.738 51.9552V56H99.688V49.216ZM104.238 49.216H105.288V56H104.238V49.216ZM104.212 48.1536V46.9376H105.313V48.1536H104.212ZM107.288 57.92V49.216H108.235L108.274 50.2528C108.645 49.4848 109.387 49.0624 110.373 49.0624C112.395 49.0624 113.304 50.7264 113.304 52.608C113.304 54.4896 112.395 56.1536 110.373 56.1536C109.426 56.1536 108.709 55.7568 108.338 55.0272V57.92H107.288ZM108.222 52.608C108.222 53.9008 108.811 55.1424 110.194 55.1424C111.602 55.1424 112.178 53.9264 112.178 52.608C112.178 51.2896 111.602 50.0608 110.194 50.0608C108.811 50.0608 108.222 51.3152 108.222 52.608ZM115.279 47.68H116.329V49.216H118.133V50.1504H116.329V54.208C116.329 54.784 116.61 55.0656 117.148 55.0656H118.121V56H117.148C115.945 56 115.279 55.36 115.279 54.208V50.1504H114.281V49.216H115.279V47.68ZM119.713 49.216H120.763V56H119.713V49.216ZM119.687 48.1536V46.9376H120.788V48.1536H119.687ZM125.549 56.1536C123.668 56.1536 122.452 54.7584 122.452 52.608C122.452 50.4576 123.668 49.0624 125.549 49.0624C127.431 49.0624 128.647 50.4576 128.647 52.608C128.647 54.7584 127.431 56.1536 125.549 56.1536ZM123.552 52.608C123.552 54.1952 124.282 55.1552 125.549 55.1552C126.804 55.1552 127.546 54.1952 127.546 52.608C127.546 51.0208 126.804 50.0608 125.549 50.0608C124.282 50.0608 123.552 51.0208 123.552 52.608ZM130.276 49.216H131.236L131.274 50.3808C131.62 49.472 132.426 49.0624 133.36 49.0624C134.909 49.0624 135.652 50.2016 135.652 51.6352V56H134.602V51.9424C134.602 50.688 134.18 49.9968 133.143 49.9968C132.042 49.9968 131.325 50.688 131.325 51.9424V56H130.276V49.216Z" fill="#888891"/>
</svg>
